# xmcd
#
# Track frame offsets:
#	150
#	19666
#	40322
#	53101
#	67769
#	80878
#	97655
#	131265
#
# Disc length: 2015 seconds
#
# Revision: 11
# Processed by: cddbd v1.5.2PL0 Copyright (c) Steve Scherf et al.
# Submitted via: Jack! The Knife 20 Magnifico
#
DISCID=5907dd08
DTITLE=Grim Reaper - See You In Hell
DYEAR=1983
DGENRE=Heavy Metal
TTITLE0=See You In Hell
TTITLE1=Dead On Arrival
TTITLE2=Liar
TTITLE3=Wrath Of The Ripper
TTITLE4=Now Or Never
TTITLE5=Run For Your Life
TTITLE6=The Show Must Go On
TTITLE7=All Hell Let Loose
EXTD=Darryl Johnston
EXTT0=Bowcott, Grimmett
EXTT1=Bowcott, Grimmett
EXTT2=Bowcott, Grimmett
EXTT3=Bowcott, Grimmett
EXTT4=Bowcott, Grimmett
EXTT5=Bowcott, Grimmett
EXTT6=Bowcott, DeMercado
EXTT7=Bowcott, Grimmett
PLAYORDER=
